<svg id="Layer_1" data-name="Layer 1" xmlns="http://www.w3.org/2000/svg" viewBox="0 0 475.86 189.23"><defs><style>.cls-1{fill:#010101;}</style></defs><title>logo</title><path class="cls-1" d="M346.5,445.61c-.2-1.32-.43-2.62-.71-3.9,0-.22-.08-.44-.13-.66q-.54-2.52-1.26-4.94c-.41-1.42-.87-2.81-1.37-4.18a57.76,57.76,0,0,0-33.1-34.53,84.49,84.49,0,0,0-27.34-6.1q-9,1.33-19.22,2.34t-20.57,1a60.65,60.65,0,0,1-11-.92,93.09,93.09,0,0,1-10-2.42l-6.82-1.51c3.34,1.56,12.08,6.47,13.92,7.7a10.77,10.77,0,0,1,4.1,5.51,34.8,34.8,0,0,1,1.59,10.12q.24,6.44.25,17.64v66.87c0,1.78,0,3.47,0,5.06,0,.23,0,.46,0,.68q0,7.33-.23,12a34.35,34.35,0,0,1-1.59,10,10.75,10.75,0,0,1-4.1,5.52c-1.84,1.23-11.46,7-14.8,8.41l7.7-2.39a82.16,82.16,0,0,1,10-2.34,66.94,66.94,0,0,1,11-.84q9.54,0,19.15.67a143.29,143.29,0,0,1,18.64,2.51,73.47,73.47,0,0,0,49-26.25,72.91,72.91,0,0,0,5.18-7.08c.15-.23.3-.46.44-.69a77.05,77.05,0,0,0,7.68-16c.39-1.13.76-2.27,1.1-3.41a83.53,83.53,0,0,0,3.21-17.5c.19-2.34.28-4.7.28-7.1A87.89,87.89,0,0,0,346.5,445.61Zm-20.71,56.93c-.59,1.09-1.23,2.16-1.9,3.2a44.9,44.9,0,0,1-12.87,13A46,46,0,0,1,292,525.72q-10.87-2.34-20.9-3.51a88,88,0,0,0-9.53-.5,73.53,73.53,0,0,0-10.37.66v-117c6.24-.67,10.59-3.12,19.73-2.92,9.86-.49,18.42,1,26.17,4.6a60.52,60.52,0,0,1,19.64,14.12,59.89,59.89,0,0,1,11.1,17.59c.34.81.67,1.63,1,2.46.09.22.17.45.25.68a.36.36,0,0,1,0,.09c.38,1.06.74,2.13,1.07,3.21A77.11,77.11,0,0,1,333.41,467c0,.42,0,.84,0,1.26a88.73,88.73,0,0,1-1.1,14.18c-.31,2-.7,4-1.16,6a55.68,55.68,0,0,1-5,13.57C326,502.13,325.91,502.34,325.79,502.54Z" transform="translate(-56.23 -370)"/><path class="cls-1" d="M409.18,490.15q0,15.56-7.58,27.08a69.66,69.66,0,0,1-18.89,19.29,84.46,84.46,0,0,1-24.65,11.62,96.62,96.62,0,0,1-24.86,4q-5-1-9.29-1.71c-2.83-.48-5.62-.88-8.39-1.22s-5.62-.57-8.58-.7-6.2-.21-9.7-.21a81.89,81.89,0,0,0-13.34,1,100.14,100.14,0,0,0-12.12,2.83l-20.61,7.05c4-1.75,27-12.84,29.19-14.33a12.82,12.82,0,0,0,4.85-6.39,79.5,79.5,0,0,0,20.91-5.93v2a64.23,64.23,0,0,1,9.71-.81h1q4.85.21,9.49.81c3.1.41,6.3.94,9.6,1.62s7,1.48,11,2.42a90,90,0,0,0,16.78-1.92,41,41,0,0,0,14.44-6A30.48,30.48,0,0,0,388.37,519q3.84-7.47,3.83-19.19,0-13.14-5.86-21.22a37.46,37.46,0,0,0-15.25-12.32,60,60,0,0,0-18.67-4.81c0-.84,0-1.69,0-2.54a91.33,91.33,0,0,0-.45-9.18c1.13-.34,2.24-.74,3.32-1.16a36.4,36.4,0,0,0,10.4-6.05,26.42,26.42,0,0,0,7-9.19,30.16,30.16,0,0,0,2.52-12.73,25,25,0,0,0-3.33-12.54,33.82,33.82,0,0,0-9.5-10.4,48.45,48.45,0,0,0-14.95-7.18c-5.86-1.74-12.36-1-19.5-1.3-6.8.5-6.8.5-10.71,1.3s-7.61,1.42-11.12,1.83v1.24a96,96,0,0,0-21-3.75,12.82,12.82,0,0,0-4.76-6.19c-2.21-1.48-22.57-11.77-26.61-13.66l18,6.19a113.53,113.53,0,0,0,12.12,2.93,74.33,74.33,0,0,0,13.34,1.11,228.76,228.76,0,0,0,22.93-1.11q11-1.11,21.93-2.93,24,1,36.27,10.81t12.22,24.75a40.61,40.61,0,0,1-7.18,23.64,49.89,49.89,0,0,1-7.67,8.79,51.62,51.62,0,0,1-9.4,6.77,76.42,76.42,0,0,1,16.27,2.93,40.47,40.47,0,0,1,13.64,7,34,34,0,0,1,9.39,11.82Q409.18,479.84,409.18,490.15Z" transform="translate(-56.23 -370)"/><path class="cls-1" d="M232.78,439.41v58.22c0,1.78,0,3.47,0,5.06-4.83.4-9.67.77-14.52,1a206.94,206.94,0,0,1-21.57-.15q-15-.86-30-2.56c-12-1.36-23.7-4.09-35.41-6.84a195.49,195.49,0,0,1-39.73-14A192.16,192.16,0,0,1,65,464.67c-3-2.07-5.87-4.34-8.8-6.52,0-.11.09-.22.13-.32l11.73-.54c6.36-.31,12.73-.55,19.08-1q11.67-.73,23.32-1.68c10.1-.82,20.2-1.63,30.28-2.69,12.86-1.36,25.72-2.81,38.54-4.52q21.66-2.88,43.25-6.33C226,440.58,229.38,440,232.78,439.41Z" transform="translate(-56.23 -370)"/><path class="cls-1" d="M331.42,468.21a88.73,88.73,0,0,1-1.1,14.18c-.31,2-.7,4-1.16,6a55.68,55.68,0,0,1-5,13.57c-1.62-.17-3.23-.31-4.85-.44-10.71-.86-17.46-1.34-28.21-1.65-6.78-.19-12.57.13-19.35.43-6.19.27-12.37.73-18.55,1.18v-64.8c3-.54,5.92-1.09,8.89-1.62a1.93,1.93,0,0,1,2,.69c4.39,4.32,9.58,6.87,15.85,6.85,3.72,0,6.45-.1,10.18-.15,7.45-.1,10.9-.21,18.35-.3,6.22-.09,14.43-.17,20.64-.24,0,0-2,.06-2,.09.38,1.06.74,2.13,1.07,3.21A77.11,77.11,0,0,1,331.41,467C331.42,467.37,331.42,467.79,331.42,468.21Z" transform="translate(-56.23 -370)"/><path class="cls-1" d="M385.41,441.34v31.59c-4.92,0-21.73,0-26.53,0-1.15,0-1.64.25-1.63,1.52a78.7,78.7,0,0,1-2.81,21.16c-.87,3.23-2,6.38-2.92,9.26-5.53-.63-8.95-1.32-14.33-2a77.05,77.05,0,0,0,7.68-16c.39-1.13.76-2.27,1.1-3.41a83.53,83.53,0,0,0,3.21-17.5c.19-2.34.28-4.7.28-7.1a87.89,87.89,0,0,0-1-13.23c-.2-1.32-.43-2.62-.71-3.9,3,0,4,0,7-.07,4.49-.06,9-.21,13.47-.3C370,441.31,383.73,441.34,385.41,441.34Z" transform="translate(-56.23 -370)"/><path class="cls-1" d="M527.12,470.15a59.1,59.1,0,0,1-25.84,27.66,2.82,2.82,0,0,1-2.95.14,254.2,254.2,0,0,0-39.49-15.13,251,251,0,0,0-36.47-7.69,245.51,245.51,0,0,0-36.76-2.2h-2V441.33a1044.25,1044.25,0,0,1,148.47,10.93A57.37,57.37,0,0,1,527.12,470.15Zm-121.5-11.06a2.5,2.5,0,0,0,2.34-2.51,2.35,2.35,0,0,0-2.42-2.35,2.38,2.38,0,0,0-2.35,2.44A2.56,2.56,0,0,0,405.62,459.09Zm90.07,10.07a2.28,2.28,0,0,0,2.4,2.39,2.38,2.38,0,0,0,0-4.75A2.27,2.27,0,0,0,495.69,469.16Z" transform="translate(-56.23 -370)"/><path class="cls-1" d="M383.08,441.39h-4.83v31.42h4.83Z" transform="translate(-56.23 -370)"/></svg>