<?xml version="1.0" encoding="utf-8"?>
<!-- Generator: Adobe Illustrator 24.0.0, SVG Export Plug-In . SVG Version: 6.00 Build 0)  -->
<svg version="1.1" id="Layer_1" xmlns="http://www.w3.org/2000/svg" xmlns:xlink="http://www.w3.org/1999/xlink" x="0px" y="0px"
	 viewBox="0 0 1200 1200" style="enable-background:new 0 0 1200 1200;" xml:space="preserve">
<style type="text/css">
	.st0{fill:#FFFFFF;}
</style>
<g>
	<g>
		<path class="st0" d="M572,507.64c-16.71,4.32-23.73,6.57-39.18,14.13V353.68c-6.59-52.1,16.84-90.68,36.84-111.79
			c-23.77,58.04-9.33,102.97,2.35,115.16V507.64z"/>
		<path class="st0" d="M572,948.58c-20.01-9.06-26.12-12.43-41.29-29.98V568.37c16.01-6.28,23.45-11.71,41.29-14.56V948.58z"/>
		<path class="st0" d="M594.76,377.29c-15.32-22.2-54.26-98.37,22.32-207.48c-8.15,44.1-37.54,97.78,20.23,158.98v654.95v2.05
			c-12.22-12.12-21.07-16.76-42.55-27.92"/>
		<path class="st0" d="M415.69,804.27c76.4,35.4,89.11,74.8,101.54,99.85c34.97,82.17,117.76,19.81,185.8,195.49
			C585.9,960.16,506.7,1026.73,472.99,914.24C459.93,872.95,451.5,851.04,415.69,804.27z"/>
		<path class="st0" d="M524.68,803.3c-104.33-26.37-139.84-133.66-50.79-244.58c64.78-80.69,26.91-140.44-9.05-176.39
			c27.53,71.91-34.27,133.7-57.98,181.45c-66.26,116.7-34.21,259.68,117.82,277.2V803.3z"/>
		<path class="st0" d="M588.74,544.21v-33.16c-134.71,18.32-213.91,185.45-107.35,267.18C409.28,677.55,471.69,561.35,588.74,544.21
			z"/>
		<path class="st0" d="M596.35,1087.53c17.7-11.38,32.69-23.28,40.9-43.87c-10.02-9.38-26.23-17.41-42.81-24.97
			c5.07,19.76,5.91,41.45,1.7,69.47"/>
		<path class="st0" d="M642.3,797.68v40.11c128.77-28.24,134.46-220.36,0-238.2v39.04C715.46,664.61,721.36,758.15,642.3,797.68z"/>
		<path class="st0" d="M819.32,829.49c194.93-203.92-42.69-241.56,6.18-421.88C649.1,571.08,1044.58,688.49,642.7,910.75v77.37
			c11.55,12.43,21.43,19.9,33.56,39.91c6.61,10.9,13.9,25.53,22.48,46.7c-15.1-37.24-17.22-68.67-11.2-95.67
			C703.85,905.87,779.92,865.19,819.32,829.49z"/>
		<path class="st0" d="M775.92,804.49c11.27-9.33,21.32-21.48,29.65-35.5c43.76-77.81,0.04-142.85-22.73-207.06
			c-29.89-27.55-75.23-47.23-140.14-51.62v34.76C847.12,561.81,815.1,758.99,775.92,804.49z"/>
		<path class="st0" d="M725.5,527.26c129.21-259.53-110.67-194.37-56.74-411.21C500.8,326.72,804.15,349.75,678.88,515.47"/>
	</g>
	<path class="st0" d="M531.77,1059.4c17.7-11.38,32.46-30.34,40.68-50.92c-12.22-8.06-27.08-10.31-41.81-17.49
		c5.07,19.76,5.13,41.03,0.92,69.05"/>
</g>
</svg>
