<?xml version="1.0" encoding="utf-8"?>
<!-- Generator: Adobe Illustrator 24.0.0, SVG Export Plug-In . SVG Version: 6.00 Build 0)  -->
<svg version="1.1" id="Layer_1" xmlns="http://www.w3.org/2000/svg" xmlns:xlink="http://www.w3.org/1999/xlink" x="0px" y="0px"
	 viewBox="0 0 64 64" style="enable-background:new 0 0 64 64;" xml:space="preserve">
<g>
	<path d="M43.07,26.57c-0.06-0.37-0.13-0.73-0.22-1.09c-0.01-0.06-0.03-0.12-0.04-0.18c-0.11-0.47-0.24-0.93-0.4-1.38
		c-0.13-0.4-0.27-0.79-0.43-1.17c-0.93-2.25-2.26-4.18-3.99-5.81c-1.73-1.62-3.87-2.91-6.41-3.86c-2.54-0.95-5.4-1.52-8.58-1.71
		c-1.89,0.25-3.9,0.47-6.03,0.66c-2.14,0.19-4.29,0.28-6.46,0.28c-1.26,0-2.41-0.08-3.46-0.26c-1.05-0.17-2.1-0.4-3.15-0.68
		l-2.14-0.42c1.05,0.44,3.79,1.81,4.37,2.16c0.58,0.34,1.01,0.86,1.29,1.54c0.28,0.69,0.45,1.63,0.5,2.83
		c0.05,1.2,0.08,2.85,0.08,4.94v18.72c0,0.5,0,0.97-0.01,1.42c0,0.06,0,0.13,0,0.19c-0.01,1.37-0.03,2.49-0.07,3.35
		c-0.05,1.19-0.22,2.12-0.5,2.81c-0.28,0.69-0.71,1.2-1.29,1.55c-0.58,0.34-3.6,1.95-4.65,2.35l2.42-0.67
		c1.05-0.28,2.1-0.5,3.15-0.66c1.05-0.16,2.2-0.24,3.46-0.24c2,0,4,0.06,6.01,0.19c2.01,0.13,3.96,0.36,5.85,0.7
		c3.25-0.34,6.18-1.16,8.77-2.46c2.59-1.29,4.79-2.93,6.61-4.89c0.59-0.63,1.13-1.29,1.63-1.98c0.05-0.06,0.09-0.13,0.14-0.19
		c0.99-1.39,1.79-2.89,2.41-4.49c0.12-0.32,0.24-0.64,0.35-0.95c0.53-1.58,0.86-3.21,1.01-4.9c0.06-0.66,0.09-1.32,0.09-1.99
		C43.37,28.99,43.27,27.75,43.07,26.57z M36.57,42.51c-0.19,0.31-0.39,0.6-0.6,0.9c-1.05,1.45-2.4,2.67-4.04,3.65
		c-1.65,0.98-3.64,1.63-5.98,1.94c-2.28-0.44-4.46-0.76-6.56-0.98c-0.98-0.1-1.98-0.14-2.99-0.14c-1.16,0-2.35,0.06-3.26,0.18V15.3
		c1.96-0.19,3.33-0.87,6.19-0.82c3.1-0.14,5.78,0.29,8.22,1.29c2.43,1,4.49,2.32,6.17,3.95c1.45,1.41,2.61,3.05,3.49,4.92
		c0.11,0.23,0.21,0.46,0.31,0.69c0.03,0.06,0.05,0.13,0.08,0.19c0.01,0.01,0.01,0.02,0.01,0.03c0.12,0.3,0.23,0.6,0.34,0.9
		c0.65,1.89,1,3.92,1.03,6.1c0,0.12,0,0.24,0,0.35c0,1.37-0.11,2.69-0.35,3.97c-0.1,0.57-0.22,1.12-0.36,1.67
		c-0.36,1.37-0.89,2.63-1.58,3.8C36.64,42.4,36.6,42.45,36.57,42.51z"/>
</g>
<path d="M23.8,10.4c-0.34-0.76-0.84-0.78-1.5-1.17c-0.7-0.41-7.09-3.29-8.36-3.82l5.66,1.73c1.27,0.34,2.54,0.61,3.81,0.82
	c1.27,0.21,2.66,0.31,4.19,0.31c2.5,0,4.9-0.1,7.2-0.31c2.31-0.21,4.6-0.48,6.89-0.82c5.03,0.19,8.83,1.2,11.39,3.03
	c2.56,1.83,3.84,4.14,3.84,6.93c0,1.32-0.2,2.53-0.6,3.62c-0.4,1.09-0.95,2.09-1.65,3c-0.7,0.91-1.5,1.73-2.41,2.46
	c-0.91,0.74-1.9,1.37-2.95,1.89c1.78,0.12,3.48,0.39,5.11,0.82c1.63,0.44,3.06,1.09,4.28,1.95c1.22,0.87,2.21,1.97,2.95,3.31
	c0.74,1.34,1.11,2.97,1.11,4.89c0,2.9-0.79,5.43-2.38,7.58c-1.58,2.15-3.56,3.95-5.93,5.4c-2.37,1.45-4.95,2.53-7.74,3.25
	c-2.79,0.72-5.39,1.09-7.81,1.13c-1.06-0.19-2.03-0.35-2.92-0.48c-0.89-0.13-1.77-0.25-2.63-0.34c-0.87-0.1-1.77-0.16-2.7-0.2
	c-0.93-0.04-1.95-0.06-3.05-0.06c-1.52,0-2.92,0.09-4.19,0.28c-1.27,0.19-2.54,0.45-3.81,0.79l-6.47,1.97
	c1.27-0.49,8.47-3.59,9.17-4.01c0.68-0.4,1.18-0.44,1.52-1.23c2.36-0.31,4.55-0.86,6.57-1.66v0.01c1.1-0.15,2.12-0.23,3.05-0.23
	h0.32c1.02,0.04,2.01,0.12,2.98,0.23c0.97,0.11,1.98,0.26,3.02,0.45c1.03,0.19,2.19,0.41,3.46,0.68c1.82-0.04,3.58-0.22,5.27-0.54
	c1.69-0.32,3.2-0.88,4.54-1.67c1.33-0.79,2.4-1.88,3.21-3.28c0.8-1.39,1.2-3.18,1.2-5.37c0-2.45-0.61-4.43-1.84-5.94
	c-1.22-1.51-2.82-2.66-4.79-3.45c-1.74-0.7-3.69-1.15-5.86-1.35c0.01-0.24,0.01-0.47,0.01-0.71c0-0.88-0.05-1.74-0.14-2.57
	c0.36-0.1,0.7-0.21,1.04-0.32c1.25-0.43,2.34-1,3.27-1.7c0.93-0.7,1.66-1.56,2.19-2.57c0.53-1.02,0.79-2.21,0.79-3.56
	c0-1.25-0.35-2.41-1.05-3.51c-0.7-1.09-1.69-2.06-2.98-2.91c-1.29-0.85-2.86-1.52-4.7-2.01c-1.84-0.49-3.88-0.29-6.12-0.36
	c-2.14,0.14-2.14,0.14-3.36,0.36c-1.22,0.23-2.39,0.4-3.49,0.51"/>
</svg>
